<svg xmlns="http://www.w3.org/2000/svg" xml:space="preserve" width="1.70666in" height="1.70666in" version="1.1" style="shape-rendering:geometricPrecision; text-rendering:geometricPrecision; image-rendering:optimizeQuality; fill-rule:evenodd; clip-rule:evenodd" viewBox="0 0 1707 1707" xmlns:xlink="http://www.w3.org/1999/xlink">
 <defs>
  <style type="text/css">
   
    .fil5 {fill:#BDBFC1}
    .fil6 {fill:#ED3237}
    .fil3 {fill:#008B78}
    .fil2 {fill:#00AB94}
    .fil4 {fill:#333333}
    .fil1 {fill:#CCA279}
    .fil0 {fill:#E3B486}
    .fil7 {fill:white}
   
  </style>
 </defs>
 <g id="Layer_x0020_1">
  <metadata id="CorelCorpID_0Corel-Layer"></metadata>
  <path class="fil0" d="M998 431c38,-4 70,-41 70,-76 0,-18 -6,-36 -16,-49 -11,-13 -25,-22 -42,-24 1,8 -21,18 -20,25l10 101c1,8 -1,16 -2,23z" id="id_146"></path>
  <path class="fil0" d="M557 414c-37,-4 -63,-40 -63,-75 0,-18 5,-36 16,-49 10,-13 25,-22 41,-24 -1,8 21,18 20,26l-15 99c-1,8 0,16 1,23z" id="id_147"></path>
  <path class="fil1" d="M998 431c9,-1 17,-3 25,-7 5,-20 7,-40 7,-61l0 -75c-6,-3 -13,-5 -20,-6 1,8 -21,18 -20,25l10 101c1,8 -1,16 -2,23z" id="id_148"></path>
  <path class="fil1" d="M557 414c-8,-1 -15,-3 -22,-7 -2,-14 -4,-29 -4,-44l0 -91c6,-3 13,-5 20,-6 -1,8 21,18 20,26l-15 99c-1,8 0,16 1,23z" id="id_149"></path>
  <path class="fil0" d="M611 690c-6,0 -11,-1 -16,-4 -14,-8 -19,-27 -11,-42l72 -124c8,-14 241,-14 250,0l71 124c9,15 4,34 -11,42 -5,3 -10,4 -15,4 -87,45 -251,42 -340,0z" id="id_150"></path>
  <path class="fil1" d="M628 569l28 -49c8,-14 241,-14 250,0l28 49c-43,32 -96,50 -153,50 -58,0 -110,-18 -153,-50z" id="id_151"></path>
  <path class="fil2" d="M1245 1093c-670,0 -678,0 -929,0 -17,0 -30,-14 -30,-30l0 -82c0,-168 118,-299 317,-351 11,-3 22,1 30,9 38,41 92,65 148,65 55,0 109,-24 147,-65 8,-8 20,-12 30,-9 199,52 318,183 318,351l0 82c0,16 -14,30 -31,30z" id="id_152"></path>
  <g id="_573773656">
   <path class="fil3" d="M507 1093l0 -218c0,-9 -8,-17 -17,-17 -10,0 -17,8 -17,17l0 218 34 0z" id="id_153"></path>
   <path class="fil3" d="M764 765l0 328 34 0 0 -328c0,-10 -8,-17 -17,-17 -10,0 -17,7 -17,17z" id="id_154"></path>
   <path class="fil3" d="M1054 875l0 218 35 0 0 -218c0,-9 -8,-17 -18,-17 -9,0 -17,8 -17,17z" id="id_155"></path>
  </g>
  <path class="fil0" d="M781 593c-127,0 -230,-103 -230,-230l0 -133c0,-127 103,-230 230,-230 126,0 229,103 229,230l0 133c0,127 -103,230 -229,230z" id="id_156"></path>
  <path class="fil4" d="M551 266l0 -36c0,-10 1,-20 2,-29l0 -2c0,-1 1,-2 1,-4l0 -2 1 -3 0 -2 1 -4 0 -2 1 -3 0 -2 1 -3 1 -2 1 -4 0 -2 1 -4 1 -1c0,-1 1,-3 1,-4l0 -1c1,-2 2,-3 2,-5l0 0 1 -2c0,-1 1,-2 1,-3l1 -2 1 -3 1 -2 1 -4 1 -1 2 -3 1 -2 1 -3 1 -2 2 -3 0 -2 2 -3 1 -2 2 -2 1 -2 1 -2 2 -3 2 -2 1 -2c0,-1 1,-2 2,-3l1 -1c1,-2 1,-3 2,-4l1 -1 0 0c2,-3 4,-5 7,-8l1 -1 2 -3 1 -2 2 -2 2 -2 2 -2 2 -2 2 -2 2 -2 2 -2 1 -1 3 -2 1 -2 3 -2 1 -1 3 -3 1 -1 3 -2 1 -1 4 -3 1 0c1,-1 2,-2 4,-4l0 0c1,-1 3,-2 4,-3l1 0 4 -3 1 0 3 -2 2 -1 3 -2 2 -1 3 -2 2 -1 2 -1 2 -1 3 -2 2 -1 3 -1 2 -1 3 -1 2 -1 3 -1 2 -1 4 -2 1 0c2,-1 3,-1 5,-2l0 0 0 0c2,0 4,-1 5,-2l1 0 1 0 4 -1 2 -1 3 -1 2 0 3 -1 2 0 4 -1 2 -1 3 0 3 -1 2 0 3 0 3 -1 3 0 2 -1 3 0 3 0 3 0 3 -1 3 0 0 0c1,0 3,0 5,0l0 0c2,0 4,0 6,0 2,0 3,0 5,0l1 0c1,0 3,0 5,0l0 0 3 1 3 0 2 0 4 0 2 0 3 1 3 0 3 1 2 0 3 1 3 0 3 1 2 0 4 1 2 0 3 1 2 1 3 0 3 1 3 1 2 1 3 1 2 0 3 1 2 1 3 1 2 1 4 2 1 0 4 2 2 1 2 1 3 1 3 1 1 1c2,1 3,2 4,2l1 1 4 2 1 0 0 1c2,0 3,1 5,2l0 0 2 2 2 1 1 1 4 2 1 1 3 2 2 1 3 2 1 2 3 2 2 1 2 2 2 1 2 3 2 1 2 2 2 1 2 3 2 1 2 2 2 2 2 2 1 2 3 2 1 2 2 2 2 2 2 3 1 1 2 3 2 1 1 3 2 2 2 2 1 2 2 3 1 2 2 3 1 1c1,1 2,3 3,4l0 1c1,1 2,3 2,4l1 0 0 0c1,2 2,4 2,5l0 0c1,2 2,3 3,5l0 0 1 2 1 3 1 2c1,1 1,2 2,3l1 2 1 3 1 2 1 3 1 2 1 3 1 2 1 3 1 3 0 2 1 3 1 3 1 2 1 3 0 2 1 3 1 3 0 3 1 2 0 3 1 3 0 3 1 3 0 3 0 2 1 3 0 3c0,1 0,2 0,3l1 2c0,6 0,12 0,18l0 52 -1 0c-200,-116 -436,-26 -458,-16z" id="id_157"></path>
  <path class="fil5" d="M1525 1707l-142 0 0 0 -1 0 -1203 0 0 0 -1 0 -142 0c-12,0 -22,-11 -22,-23 0,-13 10,-23 22,-23l120 0 0 -518c0,-139 139,-252 310,-252l629 0c171,0 310,113 310,252l0 518 120 0c13,0 23,10 23,23 0,12 -10,23 -23,23z" id="id_158"></path>
  <path class="fil6" d="M1006 1482l-450 0c-13,0 -23,-10 -23,-23l0 -321c0,-13 10,-23 23,-23l450 0c12,0 22,10 22,23l0 321c0,13 -10,23 -22,23z" id="id_159" style="fill: rgb(0, 171, 148);"></path>
  <path class="fil7" d="M893 1298l-51 -49c-9,-9 -10,-23 -1,-33 8,-9 23,-9 32,0l69 65c4,4 7,10 7,16 0,7 -3,13 -7,17l-69 65c-4,4 -10,7 -16,7 -6,0 -12,-3 -16,-7 -9,-10 -8,-24 1,-33l51 -48zm-225 0l52 48c9,9 9,24 1,33 -5,4 -11,7 -17,7 -6,0 -11,-3 -15,-7l-69 -65c-5,-4 -7,-10 -7,-16 0,-7 2,-13 7,-17l69 -65c9,-9 23,-9 32,0 8,10 8,24 -1,33l-52 49zm94 90c-4,0 -2,0 -6,-1 -12,-3 -19,-16 -16,-28l37 -132c4,-12 16,-19 28,-15 13,3 20,16 16,28l-37 131c-3,10 -12,17 -22,17z" id="id_160"></path>
 </g>
</svg>